<svg width="32" height="32" viewBox="0 0 32 32" fill="none" xmlns="http://www.w3.org/2000/svg">
<g clip-path="url(#clip0_2140_1061)">
<mask id="mask0_2140_1061" style="mask-type:luminance" maskUnits="userSpaceOnUse" x="-226" y="-105" width="340" height="241">
<path d="M-225.812 -104.151H113.061V135.459H-225.812V-104.151Z" fill="white"/>
</mask>
<g mask="url(#mask0_2140_1061)">
<path d="M22.6421 1.71421C22.8832 2.20045 22.6405 2.76558 22.1277 2.94229L16.7972 5.36342C16.1705 5.64719 15.747 5.59285 15.1456 5.32719L11.7005 3.6962C11.2227 3.42933 11.1644 2.77645 11.4691 2.39527C11.7919 2.01087 12.3715 1.95089 12.7366 2.29544L15.3884 4.42797C15.6766 4.66546 15.9776 4.67713 16.2155 4.624C16.3129 4.60186 16.3934 4.55919 16.5243 4.48593L21.3923 1.3596C21.8419 1.1044 22.4131 1.25092 22.6421 1.71421Z" fill="#234C9C"/>
</g>
<mask id="mask1_2140_1061" style="mask-type:luminance" maskUnits="userSpaceOnUse" x="3" y="5" width="26" height="25">
<path d="M8.67627 6.88715C7.39024 7.22607 6.81705 7.51226 6.81705 7.51226C5.68557 8.02627 4.79641 8.85868 4.41804 10.0594C4.41804 10.0594 4.24013 10.5786 4.14957 11.1031C3.78891 13.2002 3.64844 15.3601 3.64844 17.555C3.64844 20.3831 3.92779 23.1456 4.47401 25.8126C4.69096 26.8717 5.18082 27.3853 5.18082 27.3853C5.71093 28.078 6.4749 28.5823 7.3552 28.78C7.41759 28.7925 7.48078 28.8053 7.54398 28.817C10.2787 29.3576 13.1056 29.6426 15.9992 29.6426C18.905 29.6426 21.7435 29.356 24.4887 28.8106C24.5342 28.8017 24.5792 28.7929 24.6247 28.784C26.0758 28.4656 27.2153 27.3152 27.5164 25.8577L27.52 25.84C28.0651 23.1641 28.3516 20.3936 28.3516 17.5562C28.3516 15.3436 28.1596 13.1745 27.8384 11.0536C27.7784 10.6599 27.6182 10.1157 27.5993 10.0501C27.0922 8.28589 25.1738 7.52997 25.1738 7.52997C24.5563 7.25586 23.2284 6.8948 23.2284 6.8948C20.9409 6.31639 18.5484 6 16.083 5.99316H15.9135C15.9135 5.99316 15.9018 5.99316 15.8793 5.99316C15.4969 5.99316 11.9737 6.01731 8.67627 6.88715Z" fill="white"/>
</mask>
<g mask="url(#mask1_2140_1061)">
<path d="M29.459 11.5805C29.0822 8.78338 28.437 7.18781 24.7975 6.36305C21.5158 5.6192 19.1373 5.47349 17.1903 5.38615C16.7749 5.36763 16.3611 5.36763 15.9465 5.38615C13.9988 5.47349 11.6211 5.6192 8.3386 6.36305C4.69905 7.18781 4.05382 8.78338 3.67706 11.5805C3.30635 14.3357 3.33573 17.6456 3.33694 17.7434C3.33573 17.8412 3.30635 21.1511 3.67706 23.9063C4.05382 26.7034 4.69905 28.299 8.3386 29.1233C11.6211 29.8672 13.9988 29.8164 15.9465 29.9038C16.3611 29.9227 16.7749 29.9227 17.1903 29.9038C19.1373 29.8164 21.5158 29.8672 24.7975 29.1233C28.437 28.299 29.0822 26.7034 29.459 23.9063C29.8301 21.1511 29.8007 17.8412 29.7999 17.7434C29.8007 17.6456 29.8301 14.3357 29.459 11.5805Z" fill="#234C9C"/>
<path d="M20.2455 13.9149C20.2193 12.9501 20.2093 11.9981 20.2294 11.041C20.2572 9.73762 21.2051 9.23045 21.2051 9.23045C21.8354 8.8545 22.6715 8.79131 23.4081 9.12097C24.5339 9.62492 25.9866 10.3953 25.9866 10.3953C26.8218 10.8466 27.5238 11.2297 28.3993 11.8017C28.4033 11.8037 28.4069 11.8053 28.4109 11.8078C28.4564 11.8323 28.5007 11.8589 28.5434 11.8862C29.4768 12.4804 29.8061 13.7032 29.2719 14.6918C29.098 15.0134 28.8541 15.2718 28.5687 15.459C28.5663 15.4602 28.5639 15.4618 28.5619 15.4634C27.7331 16.0144 27.011 16.5401 26.1577 17.069C24.779 17.9224 23.9144 18.3201 23.9144 18.3201C23.2998 18.6642 22.2512 18.8095 21.5275 18.438C20.4327 17.8761 20.3884 16.5735 20.3884 16.5735C20.3884 16.5735 20.2886 15.5081 20.2455 13.9149Z" fill="#09BBEC"/>
<path d="M21.718 21.6138C18.9551 24.1839 12.9645 24.1863 10.2761 21.6159C10.062 21.4086 9.71459 21.4186 9.51091 21.636C9.3012 21.8493 9.31207 22.1947 9.5254 22.4012C12.63 25.3609 19.2751 25.3649 22.4518 22.406C22.6764 22.2023 22.6869 21.859 22.4852 21.64C22.2799 21.421 21.9394 21.4073 21.718 21.6138Z" fill="white"/>
<path d="M19.5061 17.3309C19.5061 17.3224 19.5061 17.3144 19.5057 17.3063L19.4908 17.1445L19.1213 13.0743L19.1112 12.96C19.1004 12.8706 19.0847 12.7833 19.0633 12.6979C18.8641 11.8985 18.2076 11.2811 17.3873 11.1382C17.2741 11.1185 17.1574 11.1076 17.0383 11.1068H17.0113H14.9738H14.9468C14.8438 11.1076 14.7423 11.1152 14.6437 11.1301C13.8029 11.2573 13.1258 11.882 12.9221 12.6951C12.9048 12.7635 12.8908 12.834 12.8807 12.9048L12.861 13.1222L12.4911 17.1671L12.4826 17.2617C12.481 17.2846 12.4798 17.3075 12.4786 17.3309C12.4778 17.3571 12.4766 17.3836 12.4766 17.4102C12.4766 18.3851 13.1407 19.2042 14.0403 19.4421C14.2106 19.4868 14.3889 19.5113 14.5729 19.5117H14.5833H17.4017H17.4118C17.5285 19.5113 17.6429 19.5013 17.7539 19.4827C18.7494 19.3173 19.5081 18.4523 19.5081 17.4102C19.5081 17.3836 19.5073 17.3571 19.5061 17.3309Z" fill="#4DAE36"/>
<path d="M11.6457 15.0915C10.8411 17.7775 8.43406 19.1456 5.77343 18.6856C3.00976 18.2078 1.0165 14.3014 2.39149 11.8947C3.57046 9.83142 6.14133 8.30629 8.82369 9.13024C11.6667 10.0037 12.4584 12.3789 11.6457 15.0915Z" fill="#E8388A"/>
<path d="M25.8793 13.8047C25.8793 14.7832 25.0859 15.5762 24.1078 15.5762C23.1293 15.5762 22.3359 14.7832 22.3359 13.8047C22.3359 12.8262 23.1293 12.0332 24.1078 12.0332C25.0859 12.0332 25.8793 12.8262 25.8793 13.8047Z" fill="#1B1A1A"/>
<path d="M9.39491 13.8047C9.39491 14.7832 8.60155 15.5762 7.62344 15.5762C6.64492 15.5762 5.85156 14.7832 5.85156 13.8047C5.85156 12.8262 6.64492 12.0332 7.62344 12.0332C8.60155 12.0332 9.39491 12.8262 9.39491 13.8047Z" fill="#1B1A1A"/>
</g>
</g>
<defs>
<clipPath id="clip0_2140_1061">
<rect width="32" height="32" fill="white"/>
</clipPath>
</defs>
</svg>
