<svg width="46" height="35" viewBox="0 0 46 35" fill="none" xmlns="http://www.w3.org/2000/svg">
<path d="M32.693 5.07324C29.0121 5.07324 25.7053 6.67384 23.43 9.21644C23.333 9.32574 23.164 9.32574 23.0671 9.21644C20.7917 6.67384 17.4849 5.07324 13.8041 5.07324C6.9407 5.07324 1.3772 10.6368 1.3772 17.5001C1.3772 24.3635 6.9407 29.927 13.8041 29.927C17.4849 29.927 20.7917 28.3265 23.0671 25.7839C23.164 25.6746 23.333 25.6746 23.43 25.7839C25.7053 28.3265 29.0121 29.927 32.693 29.927C39.5564 29.927 45.1199 24.3635 45.1199 17.5001C45.1199 10.6368 39.5564 5.07324 32.693 5.07324ZM32.693 23.9621C30.7047 23.9621 29.0432 23.004 28.0242 21.9216C27.6999 21.5762 27.2972 21.1027 26.8548 20.7013C26.6436 20.5099 26.4336 20.3384 26.2322 20.1843C25.4009 19.5916 24.3694 19.2399 23.2498 19.2399C22.1301 19.2399 21.0987 19.5916 20.2673 20.1843C20.0648 20.3384 19.856 20.5099 19.6447 20.7013C19.2011 21.1027 18.7997 21.5762 18.4754 21.9216C17.4564 23.004 15.7949 23.9621 13.8066 23.9621C13.7556 23.9621 13.7059 23.9596 13.655 23.9584C13.5692 23.9559 13.4835 23.9534 13.399 23.9485C13.3406 23.9447 13.2822 23.9398 13.225 23.9348C13.1902 23.9323 13.1554 23.9286 13.1219 23.9261C9.8747 23.5843 7.3446 20.838 7.3446 17.5001V17.5275C7.3446 17.5088 7.3446 17.4902 7.3446 17.4728V17.5001C7.3446 14.1635 9.8747 11.4172 13.1206 11.0742C13.1567 11.0705 13.1939 11.068 13.23 11.0642C13.2859 11.0593 13.3418 11.0556 13.3977 11.0518C13.4835 11.0469 13.5692 11.0444 13.6562 11.0419C13.7059 11.0419 13.7556 11.0382 13.8053 11.0382C15.7936 11.0382 17.4551 11.9963 18.4741 13.0786C18.7985 13.4241 19.2011 13.8976 19.6435 14.299C19.8548 14.4903 20.0648 14.6618 20.2661 14.8159C21.0974 15.4087 22.1289 15.7604 23.2485 15.7604C24.3682 15.7604 25.3996 15.4087 26.231 14.8159C26.4336 14.6618 26.6423 14.4903 26.8536 14.299C27.2972 13.8976 27.6986 13.4241 28.023 13.0786C29.042 11.9963 30.7034 11.0382 32.6917 11.0382C32.7414 11.0382 32.7899 11.0406 32.8396 11.0419C32.9266 11.0444 33.0136 11.0469 33.0993 11.0518C33.154 11.0556 33.2087 11.0593 33.2634 11.0642C33.3019 11.0667 33.3404 11.0705 33.3789 11.0742C36.5006 11.4047 38.9586 13.9572 39.1413 17.1211C39.1413 17.1422 39.1438 17.1621 39.145 17.182C39.1475 17.2404 39.1488 17.3001 39.15 17.3585C39.1512 17.4467 39.1525 17.5337 39.15 17.6219C39.1488 17.6878 39.1488 17.7549 39.145 17.8208C39.145 17.8344 39.1425 17.8481 39.1425 17.8618C38.9673 21.0319 36.5056 23.593 33.3789 23.9236C33.3392 23.9273 33.3007 23.9311 33.2609 23.9335C33.2075 23.9385 33.154 23.9422 33.1006 23.946C33.0148 23.9509 32.9266 23.9534 32.8396 23.9559C32.7899 23.9559 32.7414 23.9596 32.6917 23.9596L32.693 23.9621Z" fill="url(#paint0_linear_2911_6487)"/>
<defs>
<linearGradient id="paint0_linear_2911_6487" x1="5.846" y1="3.89037" x2="42.1832" y2="32.1509" gradientUnits="userSpaceOnUse">
<stop stop-color="#0082FF"/>
<stop offset="0.42" stop-color="#0A96FF"/>
<stop offset="0.56" stop-color="#05BCFF"/>
<stop offset="0.76" stop-color="#00F0FF"/>
<stop offset="0.79" stop-color="#04F0FC"/>
<stop offset="0.82" stop-color="#10F1F5"/>
<stop offset="0.85" stop-color="#24F4E8"/>
<stop offset="0.89" stop-color="#40F7D7"/>
<stop offset="0.92" stop-color="#64FBC1"/>
<stop offset="0.94" stop-color="#82FFB0"/>
</linearGradient>
</defs>
</svg>
