<svg width="80" height="40" viewBox="0 0 80 40" fill="none" xmlns="http://www.w3.org/2000/svg">
<g clip-path="url(#clip0_1989_172712)">
<path fill-rule="evenodd" clip-rule="evenodd" d="M57.7298 8.69568V31.216H50.7955V8.69568H57.7298ZM0 8.69841H18.3756V15.6377H12.6525V31.2187H5.71819V15.6377H0V8.69841ZM43.0503 8.6983L40.345 22.135L34.5822 13.7613L28.8144 22.1499L26.1042 8.6983H19.1699L23.7067 31.2186H30.6559L34.5822 24.9346L38.5134 31.2186H45.4477L49.9845 8.6983H43.0503ZM59.2518 8.6983H70.3804C75.6915 8.6983 80 13.0018 80 18.313C80 23.6242 75.6915 27.9326 70.3804 27.9326H66.1861V31.2186H59.2518V8.6983ZM66.1861 20.9984H70.3804C71.8645 20.9984 73.0657 19.8021 73.0657 18.318C73.0657 16.8338 71.8645 15.6326 70.3804 15.6326H66.1861V20.9984Z" fill="#801FE8"/>
</g>
<defs>
<clipPath id="clip0_1989_172712">
<rect width="80" height="22.6087" fill="white" transform="translate(0 8.69568)"/>
</clipPath>
</defs>
</svg>
