<svg width="512" height="512" viewBox="0 0 512 512" fill="none" xmlns="http://www.w3.org/2000/svg">
<mask id="mask0_2762_9296" style="mask-type:alpha" maskUnits="userSpaceOnUse" x="46" y="173" width="420" height="178">
<path d="M287.874 177.753C304.878 167.968 326.621 173.775 336.439 190.724L368.046 245.292L399.654 190.724C409.471 173.775 431.214 167.968 448.218 177.753C465.222 187.539 471.048 209.211 461.231 226.16L399.23 333.2C392.58 344.68 380.46 351.048 368.046 350.922C355.633 351.048 343.512 344.68 336.863 333.2L274.861 226.16C265.044 209.211 270.87 187.539 287.874 177.753Z" fill="white"/>
<path d="M112.346 190.8C102.529 173.851 80.7858 168.044 63.7817 177.83C46.7777 187.615 40.9516 209.287 50.7689 226.236L112.77 333.276C122.588 350.225 144.331 356.032 161.335 346.247C178.339 336.461 184.165 314.789 174.348 297.84L112.346 190.8Z" fill="white"/>
<path d="M196.542 281.467C183.922 266.475 185.883 244.124 200.924 231.544C215.965 218.964 238.39 220.92 251.011 235.912C263.632 250.904 261.67 273.255 246.629 285.835C231.588 298.415 209.163 296.459 196.542 281.467Z" fill="white"/>
</mask>
<g mask="url(#mask0_2762_9296)">
<rect width="512" height="512" fill="url(#paint0_linear_2762_9296)"/>
</g>
<defs>
<linearGradient id="paint0_linear_2762_9296" x1="38" y1="223.5" x2="474.5" y2="282.5" gradientUnits="userSpaceOnUse">
<stop stop-color="#00EEB6"/>
<stop offset="0.451923" stop-color="#26CCDB"/>
<stop offset="1" stop-color="#4AABFF"/>
</linearGradient>
</defs>
</svg>
