<svg xmlns:dc="http://purl.org/dc/elements/1.1/" xmlns:cc="http://creativecommons.org/ns#" xmlns:rdf="http://www.w3.org/1999/02/22-rdf-syntax-ns#" xmlns:svg="http://www.w3.org/2000/svg" xmlns="http://www.w3.org/2000/svg" viewBox="0 0 20 20" height="20" width="20" xml:space="preserve" version="1.1">
<g>
<path fill="#ffffff" d="M3 9c0-.621.08-1.223.233-1.796l1.122.441.654 1.663a5 5 0 105.3-5.299l-1.664-.654-.441-1.122a7 7 0 015.014 12.985L14 16a2 2 0 012 2H4a2 2 0 012-2l.782-.782A7 7 0 013 9z"></path>
<path fill="#ffffff" d="M7.489 4.511L10 5.5l-2.511.989L6.5 9l-.989-2.511L3 5.5l2.511-.989L6.5 2l.989 2.511zM12 9l-1.435-.565L10 7l-.565 1.435L8 9l1.435.565L10 11l.565-1.435L12 9z"></path></g></svg>